# xmcd
#
# Track frame offsets: 
#        150
#        4506
#        20817
#        49291
#        60232
#        73547
#        88115
#        95208
#        100411
#        110147
#        125509
#        141129
#        154204
#        166997
#        198555
#        212765
#        216961
#        225842
#        232596
#        241385
#        252750
#        267886
#        281436
#        290376
#        301788
#        314219
#        323775
#        334702
#
# Disc length: 4578 seconds
#
# Revision: 0
# Processed by: cddbd v1.5.2PL0 Copyright (c) Steve Scherf et al.
# Submitted via: ExactAudioCopy v0.99pb5
#
DISCID=9611e01c
DTITLE=Elvis Presley  - A Minnesota Moment
DYEAR=1900
DGENRE=
TTITLE0=Also Sprach Zarathustra
TTITLE1=See See Rider
TTITLE2=I Got A Woman  Amen
TTITLE3=Love Me
TTITLE4=If You Love Me (Let Me Know)
TTITLE5=You Gave Me A Mountain
TTITLE6=Jailhouse Rock
TTITLE7=All Shook Up
TTITLE8=Teddy Bear  Dont Be Cruel
TTITLE9=And I Love You So
TTITLE10=Fever
TTITLE11=Steamroller Blues
TTITLE12=Introductions  Early Mornin Rain
TTITLE13=What-d I Say  Johnny B. Goode
TTITLE14=Love Letters
TTITLE15=School Days
TTITLE16=Hurt
TTITLE17=Hound Dog
TTITLE18=One Night
TTITLE19=Its Now Or Never
TTITLE20=Mystery TrainTiger Man
TTITLE21=Funny How Time Slips Away
TTITLE22=Cant Help Falling In Love
TTITLE23=Fairytale
TTITLE24=America
TTITLE25=Hawaiian Wedding Song
TTITLE26=Blue Christmas
TTITLE27=Thats All Right
EXTD=
EXTT0=
EXTT1=
EXTT2=
EXTT3=
EXTT4=
EXTT5=
EXTT6=
EXTT7=
EXTT8=
EXTT9=
EXTT10=
EXTT11=
EXTT12=
EXTT13=
EXTT14=
EXTT15=
EXTT16=
EXTT17=
EXTT18=
EXTT19=
EXTT20=
EXTT21=
EXTT22=
EXTT23=
EXTT24=
EXTT25=
EXTT26=
EXTT27=
PLAYORDER=
